# xmcd CD database file
#
# Track frame offsets:
#	150
#	22535
#	42897
#	56667
#
# Disc length: 1040 seconds
#
# Revision: 0
# Processed by: cddbd v1.5PL3 Copyright (c) Steve Scherf et al.
# Submitted via: CDex 1.51
#
DISCID=23040e04
DTITLE=ハイテクキネマ - Hey! LaLa
DYEAR=1998
DGENRE=JPop
TTITLE0=Hey! LaLa
TTITLE1=Well Well Well
TTITLE2=Cheep Sweet Honey Drop
TTITLE3=Rolloer Coaster
EXTD=YEAR: 1998
EXTT0=
EXTT1=
EXTT2=
EXTT3=
PLAYORDER=
